<svg version="1.1" xmlns="http://www.w3.org/2000/svg" xmlns:xlink="http://www.w3.org/1999/xlink" x="0px" y="0px" viewBox="0 0 96 25" style="enable-background:new 0 0 96 25;" xml:space="preserve"><style type="text/css">.st0{fill:#231F20;}.st1{fill:#2B9951;}.st2{fill:url(#SVGID_1_);}.st3{fill:url(#SVGID_2_);}</style><g id="oc_logo"><g id="text"><path id="s" class="st0" d="M94.1,13.3c-0.9-0.2-1.2-0.4-1.2-0.8c0-0.5,0.3-0.7,1-0.7c0.4,0,0.8,0.1,1.2,0.3c0.1,0,0.1,0,0.2,0.1l0.1,0l0.3-0.7l-0.1,0c-0.5-0.3-1.1-0.4-1.7-0.4c-1,0-2,0.5-2,1.6c0,1.1,0.9,1.3,1.9,1.6c0.7,0.2,1.1,0.4,1.1,0.8c0,0.6-0.6,0.8-1.1,0.8c-0.6,0-1.2-0.2-1.8-0.5l-0.1-0.1v1l0,0c0.6,0.3,1.3,0.5,1.9,0.5c0.9,0,2-0.4,2-1.7C95.8,13.9,95.1,13.5,94.1,13.3L94.1,13.3z"/><path id="e" class="st0" d="M91.1,13.8c0-1.8-0.8-2.7-2.3-2.7c-0.7,0-1.4,0.3-1.9,0.8c-0.5,0.6-0.7,1.3-0.7,2c-0.1,1.4,0.9,2.6,2.3,2.8c0.1,0,0.2,0,0.4,0c0.6,0,1.2-0.1,1.8-0.4l0.1,0v-0.9l-0.1,0.1c-0.5,0.3-1,0.4-1.6,0.4c-0.9,0-1.6-0.7-1.7-1.5h3.8L91.1,13.8z M87.4,13.4c0.1-1.1,0.6-1.6,1.4-1.6s1.2,0.5,1.3,1.6H87.4z"/><path id="g" class="st0" d="M84.4,11.2v0.6c-0.5-0.5-1.1-0.8-1.8-0.7c-1.4,0-2.5,1.1-2.5,2.5c0,0.1,0,0.2,0,0.3c0,1.7,1,2.8,2.5,2.8c0.7,0,1.3-0.3,1.7-0.7v0.4c0,1.3-0.6,2-1.7,2c-0.6,0-1.2-0.1-1.7-0.4l-0.1-0.1v0.9l0.1,0c0.6,0.2,1.2,0.3,1.8,0.3c1.7,0,2.7-1.1,2.7-2.9v-5H84.4z M82.7,15.7c-1.4,0-1.5-1.5-1.5-1.9s0.1-1.9,1.5-1.9c1,0,1.7,0.9,1.7,1.8c0,0,0,0.1,0,0.1C84.5,14.8,83.8,15.6,82.7,15.7C82.8,15.7,82.7,15.7,82.7,15.7z"/><path id="e-2" class="st0" d="M79.4,13.8c0-1.8-0.8-2.7-2.3-2.7c-0.7,0-1.4,0.3-1.9,0.8c-0.5,0.6-0.7,1.3-0.7,2c-0.1,1.4,0.9,2.6,2.3,2.8c0.1,0,0.2,0,0.4,0c0.6,0,1.2-0.1,1.8-0.4l0.1,0v-0.9l-0.1,0.1c-0.5,0.3-1,0.4-1.6,0.4c-0.9,0-1.6-0.7-1.7-1.5h3.8L79.4,13.8z M75.6,13.4c0.1-1.1,0.6-1.6,1.4-1.6s1.2,0.5,1.3,1.6H75.6z"/><path id="l" class="st0" d="M73.9,15.6L73.9,15.6L73.9,15.6c-0.2,0.1-0.3,0.2-0.5,0.2c-0.1,0-0.2,0-0.2-0.3V8.8c0.1-0.5-0.3-0.9-0.7-0.9c-0.1,0-0.1,0-0.2,0c-0.3,0-0.6,0.1-0.8,0.3v0.7l0,0l0.1-0.1c0.1-0.1,0.2-0.1,0.4-0.1c0.1,0,0.2,0,0.2,0.3v6.4c0,0.5,0.1,1.1,0.9,1.1c0.3,0,0.6-0.1,0.8-0.2L73.9,15.6z"/><path id="l-2" class="st0" d="M71.2,15.6L71.2,15.6L71.2,15.6c-0.2,0.1-0.3,0.2-0.5,0.2c-0.1,0-0.2,0-0.2-0.3V8.8c0.1-0.5-0.3-0.9-0.7-0.9c-0.1,0-0.1,0-0.2,0c-0.3,0-0.6,0.1-0.8,0.3v0.7l0,0l0.1-0.1c0.1-0.1,0.2-0.1,0.4-0.1c0.1,0,0.2,0,0.2,0.3v6.4c0,0.5,0.1,1.1,0.9,1.1c0.3,0,0.6-0.1,0.8-0.2L71.2,15.6z"/><path id="o" class="st0" d="M65.8,11c-1.4-0.1-2.6,1-2.6,2.4c0,0.1,0,0.2,0,0.3c-0.1,1.4,1,2.7,2.4,2.8c1.4,0.1,2.7-1,2.8-2.4c0-0.1,0-0.2,0-0.3c0.1-1.4-0.9-2.6-2.3-2.8C66,11,65.9,11,65.8,11z M65.8,15.8c-1.1,0-1.5-1.1-1.5-2s0.4-2,1.5-2s1.5,1.1,1.5,2S66.9,15.8,65.8,15.8z"/><path id="c" class="st0" d="M62.5,15.2L62.5,15.2c-0.6,0.4-1.3,0.5-2,0.5c-1.6,0-2.7-1.3-2.7-3.2c0-1.9,1.1-3.2,2.7-3.2c0.6,0,1.2,0.1,1.8,0.4l0.1,0l0.3-0.9l-0.1,0c-0.7-0.3-1.5-0.5-2.2-0.5c-1,0-2,0.4-2.7,1.2c-0.7,0.8-1.1,1.9-1,3c0,2.5,1.5,4.2,3.8,4.2c0.7,0,1.5-0.1,2.2-0.5L62.5,15.2z"/><path id="n" class="st0" d="M54.9,15.6c-0.1,0.1-0.2,0.1-0.4,0.1c-0.1,0-0.1,0-0.1,0c-0.1-0.1-0.1-0.2-0.1-0.3V13c0-0.5-0.1-1.1-0.5-1.5c-0.4-0.4-1-0.6-1.5-0.5c-0.6,0-1.2,0.3-1.6,0.8c0-0.4-0.4-0.7-0.8-0.7c0,0,0,0,0,0c-0.2,0-0.5,0.1-0.7,0.2v0.7c0.1-0.1,0.2-0.1,0.4-0.1c0.1,0,0.2,0,0.2,0.3v4.2h1v-2.6c0-0.5,0.1-2,1.5-2c0.3,0,0.5,0.1,0.7,0.3c0.2,0.3,0.3,0.6,0.3,1v2.3c0,0.3,0.1,0.6,0.2,0.9c0.2,0.2,0.4,0.2,0.7,0.2c0.2,0,0.5-0.1,0.7-0.2L54.9,15.6z"/><path id="e-3" class="st0" d="M48.5,13.8c0-1.8-0.8-2.7-2.3-2.7c-0.7,0-1.4,0.3-1.9,0.8c-0.5,0.6-0.7,1.3-0.7,2c-0.1,1.4,0.9,2.6,2.3,2.8c0.1,0,0.2,0,0.4,0c0.6,0,1.2-0.1,1.8-0.4l0,0v-0.9L48,15.4c-0.5,0.3-1,0.4-1.6,0.4c-0.9,0-1.6-0.7-1.6-1.5h3.8L48.5,13.8z M44.8,13.4c0.1-1.1,0.6-1.6,1.4-1.6s1.2,0.5,1.3,1.6H44.8z"/><path id="p" class="st0" d="M40.5,11c-0.7,0-1.3,0.3-1.8,0.8c-0.1-0.4-0.4-0.7-0.9-0.7c-0.2,0-0.4,0.1-0.6,0.2V12c0.1-0.1,0.2-0.1,0.3-0.1c0.1,0,0.2,0,0.2,0.3v6.6h1v-3c0.5,0.5,1.1,0.8,1.8,0.7c1.4,0,2.4-1.1,2.4-2.8C43,12.1,42,11,40.5,11L40.5,11z M40.4,15.7c-1-0.1-1.7-0.9-1.6-1.8c0,0,0-0.1,0-0.1c-0.1-1,0.6-1.8,1.6-1.9c0,0,0.1,0,0.1,0c1.3,0,1.4,1.5,1.4,1.9C41.9,14.7,41.5,15.7,40.4,15.7L40.4,15.7z"/><path id="o-2" class="st0" d="M35.7,9.5c-1.5-1.5-4-1.6-5.5-0.1c0,0-0.1,0.1-0.1,0.1c-0.7,0.8-1,1.9-1,3c0,1.1,0.3,2.1,1,3c1.5,1.5,3.9,1.6,5.5,0.1c0,0,0.1-0.1,0.1-0.1c0.7-0.8,1-1.9,1-3C36.7,11.4,36.4,10.4,35.7,9.5L35.7,9.5z M32.9,15.8c-1.6,0-2.6-1.2-2.6-3.3s1-3.3,2.6-3.3c1.6,0,2.6,1.2,2.6,3.3S34.5,15.8,32.9,15.8L32.9,15.8z"/></g><g id="ring"><path class="st1" d="M6.1,19.3c-2.5-0.8-4.6-2.4-5.9-4.7c1,5.5,5.4,9.7,10.9,10.3C8.8,23.7,7,21.8,6.1,19.3L6.1,19.3z M18.9,5.7c2.5,0.8,4.6,2.4,5.9,4.7c-1-5.5-5.4-9.7-10.9-10.3C16.2,1.2,18,3.2,18.9,5.7z"/><linearGradient id="SVGID_1_" gradientUnits="userSpaceOnUse" x1="-4.703282e-04" y1="16.334" x2="18.9" y2="16.334" gradientTransform="matrix(1 0 0 -1 0 26)"><stop  offset="9.800000e-02" style="stop-color:#1AB2C3"/><stop  offset="0.329" style="stop-color:#44BA9A"/><stop  offset="0.583" style="stop-color:#6CC273"/><stop  offset="0.785" style="stop-color:#85C65B"/><stop  offset="0.908" style="stop-color:#8EC852"/></linearGradient><path class="st2" d="M6.1,19.3c-2-5.4,0.7-11.4,6-13.4c2.2-0.8,4.5-0.9,6.8-0.2c-0.9-2.4-2.7-4.4-5-5.6C13.4,0,13,0,12.5,0C5.6,0,0,5.6,0,12.5c0,0.7,0.1,1.4,0.2,2.1C1.5,16.9,3.6,18.6,6.1,19.3z"/><linearGradient id="SVGID_2_" gradientUnits="userSpaceOnUse" x1="9.5519" y1="1.9275" x2="24.2811" y2="16.6567" gradientTransform="matrix(1 0 0 -1 0 26)"><stop  offset="0" style="stop-color:#8EC852"/><stop  offset="0.551" style="stop-color:#49BB95"/><stop  offset="0.908" style="stop-color:#1AB2C3"/></linearGradient><path class="st3" d="M25,12.5c0-0.7-0.1-1.4-0.2-2.2c-1.3-2.2-3.4-3.9-5.9-4.7c2,5.4-0.7,11.4-6,13.4c-2.2,0.8-4.5,0.9-6.8,0.2c0.9,2.4,2.7,4.4,5,5.6c6.9,0.8,13-4.2,13.8-11.1C25,13.4,25,13,25,12.5z"/></g></g></svg>
